HIERARCHY
ROOT Hips
{
  OFFSET 5.84602e-005 68.8428 3.50346
  CHANNELS 6 Xposition Yposition Zposition Zrotation Xrotation Yrotation
  JOINT Spine
  {
    OFFSET 0 8.597 -4.6522
    CHANNELS 3 Zrotation Xrotation Yrotation
    JOINT Spine1
    {
      OFFSET 0 7.8454 0.4098
      CHANNELS 3 Zrotation Xrotation Yrotation
      JOINT Spine2
      {
        OFFSET 0 9.7078 -2.1609
        CHANNELS 3 Zrotation Xrotation Yrotation
        JOINT Neck
        {
          OFFSET 0 21.8761 -0.4549
          CHANNELS 3 Zrotation Xrotation Yrotation
          JOINT Head
          {
            OFFSET 0 12.3537 3.3602
            CHANNELS 3 Zrotation Xrotation Yrotation
            End Site
            {
              OFFSET 0.0001 18.9506 0.5657
            }
          }
        }
        JOINT LeftShoulder
        {
          OFFSET 2.2086 21.1115 7.2329
          CHANNELS 3 Zrotation Xrotation Yrotation
          JOINT LeftArm
          {
            OFFSET 13.1193 3.0282 -4.8998
            CHANNELS 3 Zrotation Xrotation Yrotation
            JOINT LeftForeArm
            {
              OFFSET 27.4081 -0.0973053 -0.2375
              CHANNELS 3 Zrotation Xrotation Yrotation
              JOINT LeftHand
              {
                OFFSET 22.8641 0.0662994 -0.1369
                CHANNELS 3 Zrotation Xrotation Yrotation
                JOINT LeftHandIndex1
                {
                  OFFSET 8.8614 0.775009 2.4612
                  CHANNELS 3 Zrotation Xrotation Yrotation
                  JOINT LeftHandIndex2
                  {
                    OFFSET 3.3146 -0.808304 0.5841
                    CHANNELS 3 Zrotation Xrotation Yrotation
                    JOINT LeftHandIndex3
                    {
                      OFFSET 2.2628 -0.552002 0.3989
                      CHANNELS 3 Zrotation Xrotation Yrotation
                      End Site
                      {
                        OFFSET 1.6102 -0.4807 0.2612
                      }
                    }
                  }
                }
                JOINT LeftHandMiddle1
                {
                  OFFSET 8.9937 0.895004 0.2143
                  CHANNELS 3 Zrotation Xrotation Yrotation
                  JOINT LeftHandMiddle2
                  {
                    OFFSET 4.0984 0.0113983 -0.0242
                    CHANNELS 3 Zrotation Xrotation Yrotation
                    JOINT LeftHandMiddle3
                    {
                      OFFSET 2.2716 0.00689697 -0.0138001
                      CHANNELS 3 Zrotation Xrotation Yrotation
                      End Site
                      {
                        OFFSET 2.0404 -0.1441 0.0027
                      }
                    }
                  }
                }
                JOINT LeftHandRing1
                {
                  OFFSET 8.5234 0.597198 -2.0164
                  CHANNELS 3 Zrotation Xrotation Yrotation
                  JOINT LeftHandRing2
                  {
                    OFFSET 3.7188 -0.188293 -0.2328
                    CHANNELS 3 Zrotation Xrotation Yrotation
                    JOINT LeftHandRing3
                    {
                      OFFSET 2.1191 -0.106598 -0.1332
                      CHANNELS 3 Zrotation Xrotation Yrotation
                      End Site
                      {
                        OFFSET 1.8737 -0.2304 -0.0886
                      }
                    }
                  }
                }
                JOINT LeftHandPinky1
                {
                  OFFSET 7.9094 -0.601089 -3.4825
                  CHANNELS 3 Zrotation Xrotation Yrotation
                  JOINT LeftHandPinky2
                  {
                    OFFSET 2.2874 -0.477005 -0.6314
                    CHANNELS 3 Zrotation Xrotation Yrotation
                    JOINT LeftHandPinky3
                    {
                      OFFSET 1.6774 -0.349396 -0.4633
                      CHANNELS 3 Zrotation Xrotation Yrotation
                      End Site
                      {
                        OFFSET 1.4888 -0.4091 -0.3416
                      }
                    }
                  }
                }
                JOINT LeftHandThumb1
                {
                  OFFSET 1.833 -1.3875 1.3896
                  CHANNELS 3 Zrotation Xrotation Yrotation
                  JOINT LeftHandThumb2
                  {
                    OFFSET 3.4129 -1.121 2.5732
                    CHANNELS 3 Zrotation Xrotation Yrotation
                    JOINT LeftHandThumb3
                    {
                      OFFSET 2.2474 -0.804199 1.6192
                      CHANNELS 3 Zrotation Xrotation Yrotation
                      End Site
                      {
                        OFFSET 1.6527 -0.5689 1.1317
                      }
                    }
                  }
                }
              }
            }
          }
        }
        JOINT RightShoulder
        {
          OFFSET -2.2086 21.1115 7.2329
          CHANNELS 3 Zrotation Xrotation Yrotation
          JOINT RightArm
          {
            OFFSET -13.1216 3.0287 -4.9007
            CHANNELS 3 Zrotation Xrotation Yrotation
            JOINT RightForeArm
            {
              OFFSET -27.4081 -0.0973053 -0.2375
              CHANNELS 3 Zrotation Xrotation Yrotation
              JOINT RightHand
              {
                OFFSET -22.8641 0.0664063 -0.1369
                CHANNELS 3 Zrotation Xrotation Yrotation
                JOINT RightHandIndex1
                {
                  OFFSET -8.8614 0.774994 2.4612
                  CHANNELS 3 Zrotation Xrotation Yrotation
                  JOINT RightHandIndex2
                  {
                    OFFSET -3.3146 -0.808304 0.5841
                    CHANNELS 3 Zrotation Xrotation Yrotation
                    JOINT RightHandIndex3
                    {
                      OFFSET -2.2628 -0.552002 0.3989
                      CHANNELS 3 Zrotation Xrotation Yrotation
                      End Site
                      {
                        OFFSET -1.6102 -0.4807 0.2612
                      }
                    }
                  }
                }
                JOINT RightHandMiddle1
                {
                  OFFSET -8.9937 0.894989 0.2143
                  CHANNELS 3 Zrotation Xrotation Yrotation
                  JOINT RightHandMiddle2
                  {
                    OFFSET -4.0984 0.0113983 -0.0242
                    CHANNELS 3 Zrotation Xrotation Yrotation
                    JOINT RightHandMiddle3
                    {
                      OFFSET -2.2716 0.00691223 -0.0138001
                      CHANNELS 3 Zrotation Xrotation Yrotation
                      End Site
                      {
                        OFFSET -2.0404 -0.1441 0.0027
                      }
                    }
                  }
                }
                JOINT RightHandRing1
                {
                  OFFSET -8.5234 0.597198 -2.0164
                  CHANNELS 3 Zrotation Xrotation Yrotation
                  JOINT RightHandRing2
                  {
                    OFFSET -3.7188 -0.188309 -0.2328
                    CHANNELS 3 Zrotation Xrotation Yrotation
                    JOINT RightHandRing3
                    {
                      OFFSET -2.1191 -0.106598 -0.1332
                      CHANNELS 3 Zrotation Xrotation Yrotation
                      End Site
                      {
                        OFFSET -1.8737 -0.2304 -0.0886
                      }
                    }
                  }
                }
                JOINT RightHandPinky1
                {
                  OFFSET -7.9094 -0.601105 -3.4825
                  CHANNELS 3 Zrotation Xrotation Yrotation
                  JOINT RightHandPinky2
                  {
                    OFFSET -2.2874 -0.477005 -0.6314
                    CHANNELS 3 Zrotation Xrotation Yrotation
                    JOINT RightHandPinky3
                    {
                      OFFSET -1.6774 -0.349396 -0.4633
                      CHANNELS 3 Zrotation Xrotation Yrotation
                      End Site
                      {
                        OFFSET -1.4888 -0.4091 -0.3416
                      }
                    }
                  }
                }
                JOINT RightHandThumb1
                {
                  OFFSET -1.833 -1.38751 1.3896
                  CHANNELS 3 Zrotation Xrotation Yrotation
                  JOINT RightHandThumb2
                  {
                    OFFSET -3.41299 -1.12099 2.5732
                    CHANNELS 3 Zrotation Xrotation Yrotation
                    JOINT RightHandThumb3
                    {
                      OFFSET -2.24741 -0.804108 1.6192
                      CHANNELS 3 Zrotation Xrotation Yrotation
                      End Site
                      {
                        OFFSET -1.6527 -0.5689 1.1317
                      }
                    }
                  }
                }
              }
            }
          }
        }
      }
    }
  }
  JOINT RightUpLeg
  {
    OFFSET -9.1966 3.8861 -0.7581
    CHANNELS 3 Zrotation Xrotation Yrotation
    JOINT RightLeg
    {
      OFFSET -0.7359 -41.0265 0
      CHANNELS 3 Zrotation Xrotation Yrotation
      JOINT RightFoot
      {
        OFFSET 0 -40.2855 0
        CHANNELS 3 Zrotation Xrotation Yrotation
        JOINT RightToeBase
        {
          OFFSET 0 -5.6122 11.7359
          CHANNELS 3 Zrotation Xrotation Yrotation
          End Site
          {
            OFFSET 0 0 7.8731
          }
        }
      }
    }
  }
  JOINT LeftUpLeg
  {
    OFFSET 9.1965 3.8864 -0.7581
    CHANNELS 3 Zrotation Xrotation Yrotation
    JOINT LeftLeg
    {
      OFFSET 0.7359 -41.0268 0
      CHANNELS 3 Zrotation Xrotation Yrotation
      JOINT LeftFoot
      {
        OFFSET 0 -40.2855 0
        CHANNELS 3 Zrotation Xrotation Yrotation
        JOINT LeftToeBase
        {
          OFFSET 0 -5.6122 11.7359
          CHANNELS 3 Zrotation Xrotation Yrotation
          End Site
          {
            OFFSET 0 0 7.8731
          }
        }
      }
    }
  }
}
MOTION
Frames:	5
Frame Time:	0.0333333
5.84602e-005 68.8428 3.50346 0 0 -0 0 0 -0 0 0 -0 0 0 -0 0 0 -0 0 0 -0 0 0 -0 0 0 -0 0 0 -0 0 0 -0 0 0 -0 0 0 -0 0 0 -0 0 0 -0 -0.0146107 -8.87603e-005 -2.63497e-007 2.99804e-018 -2.42657e-020 -1.42182e-022 0 0 -0 -0.0187562 -0.001176 5.858e-005 5.06224e-018 3.88251e-019 1.21329e-020 0 0 -0 -0.012269 -0.00324817 0.000675346 -1.74678e-018 3.88251e-019 -0 0 0 -0 0 0 -0 0 0 -0 0 0 -0 0 0 -0 0 0 -0 0 0 -0 0 0 -0 0 0 -0 0 0 -0 0 0 -0 0.0149955 -9.10982e-005 2.64101e-007 -9.69331e-018 1.21329e-020 -4.7394e-023 0 0 -0 0.0189956 -0.00119102 -5.96516e-005 -5.41541e-019 0 2.42657e-020 0 0 -0 0.0122698 -0.00324857 -0.000673756 -2.00796e-019 0 -1.94126e-019 0 0 -0 0 0 -0 0 0 -0 3.39842 1.33031 -0.0637918 -5.65207e-008 0.834868 -0.000436188 -3.39935 -2.16518 -0.0642563 -8.89002e-024 -1.18485e-023 -1.48106e-024 -3.39844 1.35642 0.0640283 -3.18788e-007 0.782166 -0.000588827 3.39931 -2.13858 0.0634662 1.1399e-023 0 -0 
1.62999 27.4081 1.87221 0 33.9971 -0 0.254565 -1.57585 -0.240088 0.502805 -3.15272 -0.473435 0.502805 -3.15273 -0.473436 -4.6764e-006 -0.477603 -5.52953e-006 2.22907e-007 -0.571769 -4.81653e-007 -20.6556 16.9151 -32.7052 -16.8159 -5.47958 -6.04132 -22.8886 18.3099 -58.535 18.2328 -26.2916 -1.02859 -3.92333e-007 2.42366e-006 -1.875e-006 -4.20728e-007 4.37856e-006 -4.35591e-006 3.01663e-006 4.56959e-006 -5.08675e-006 -3.92333e-007 2.42366e-006 -1.875e-006 -0.0146149 -8.23395e-005 -2.18478e-006 3.01492e-006 4.57023e-006 -5.08617e-006 -3.92333e-007 2.42366e-006 -1.875e-006 -0.0187467 -0.00117271 5.39703e-005 6.9973e-007 1.01803e-006 -3.69258e-006 -3.92333e-007 2.42366e-006 -1.875e-006 -0.0123166 -0.00325208 0.000666771 6.9957e-007 1.01785e-006 -3.69266e-006 -3.92333e-007 2.42366e-006 -1.875e-006 -4.20728e-007 4.37856e-006 -4.35591e-006 3.01663e-006 4.56959e-006 -5.08675e-006 8.86101 -7.03036 16.3264 8.8779 20.2097 28.1215 -0.95866 -0.400096 19.4312 5.09771 -9.71539 5.41149 -1.27222e-014 -3.18055e-015 3.18055e-015 6.36111e-015 -6.36111e-015 3.18055e-015 5.29669e-031 -3.18055e-015 9.54166e-015 -1.27222e-014 -3.18055e-015 3.18055e-015 0.0150074 -8.93308e-005 1.81636e-006 1.27222e-014 3.18055e-015 3.18055e-015 -1.27222e-014 -3.18055e-015 3.18055e-015 0.0189778 -0.00118947 -5.18939e-005 1.27222e-014 -3.18055e-015 -3.18055e-015 -1.27222e-014 -3.18055e-015 3.18055e-015 0.0122246 -0.00323805 -0.000675163 -6.36111e-015 3.18055e-015 6.36111e-015 -1.27222e-014 -3.18055e-015 3.18055e-015 6.36111e-015 -6.36111e-015 3.18055e-015 5.29669e-031 -3.18055e-015 9.54166e-015 -9.2327 -32.8592 -18.9656 -167.958 81.0931 165.466 19.8407 44.7856 -25.451 1.38537e-007 1.3591e-007 4.97003e-007 9.1982 -32.8524 18.922 168.232 81.119 -165.727 -19.753 44.6058 25.3639 2.78775e-008 -2.71947e-008 9.93496e-008 
1.62999 27.3794 2.46326 0 32.5632 -0 0.249895 -0.980734 -0.244945 0.495704 -1.96248 -0.485715 0.495704 -1.96248 -0.485715 -2.75013e-005 -0.948603 2.55603e-005 -4.52175e-008 -0.824721 2.33129e-007 -20.0044 16.4973 -32.6702 -16.8159 -5.47959 -6.04132 -23.1329 18.7223 -59.5069 19.4364 -25.9286 -1.06008 -7.28329e-007 9.40087e-007 1.20968e-006 3.23436e-007 7.57597e-007 2.4195e-006 -3.64165e-007 4.70044e-007 6.04838e-007 -7.28329e-007 9.40087e-007 1.20968e-006 -0.0145961 -9.05702e-005 -4.21711e-006 -3.64176e-007 4.69966e-007 6.04898e-007 -7.28329e-007 9.40087e-007 1.20968e-006 -0.0187726 -0.0011774 5.65996e-005 -3.64174e-007 4.69944e-007 6.04919e-007 -7.28329e-007 9.40087e-007 1.20968e-006 -0.0122196 -0.00323452 0.000672087 -3.64155e-007 4.69978e-007 6.04899e-007 -7.28329e-007 9.40087e-007 1.20968e-006 3.23436e-007 7.57597e-007 2.4195e-006 -3.64165e-007 4.70044e-007 6.04838e-007 7.98673 -7.58025 15.1495 9.10041 20.3361 29.0142 -0.871717 -0.369169 20.2804 3.97884 -10.3915 5.1835 -2.97604e-006 6.99374e-008 -6.39728e-007 1.39549e-006 1.32243e-007 -3.2755e-006 -1.39549e-006 -1.32243e-007 3.2755e-006 -2.97604e-006 6.99374e-008 -6.39728e-007 0.0149782 -8.98833e-005 -1.53256e-006 -1.39567e-006 -1.31813e-007 3.27551e-006 -2.97604e-006 6.99374e-008 -6.39728e-007 0.0190321 -0.00118975 -6.02409e-005 -1.39568e-006 -1.31685e-007 3.27553e-006 -2.97604e-006 6.99374e-008 -6.39728e-007 0.0123388 -0.00326636 -0.000683422 -1.39554e-006 -1.31859e-007 3.27556e-006 -2.97604e-006 6.99374e-008 -6.39728e-007 1.39549e-006 1.32243e-007 -3.2755e-006 -1.39549e-006 -1.32243e-007 3.2755e-006 -8.94007 -30.8006 -18.4953 -167.265 81.865 164.819 19.8117 44.7868 -25.4126 -1.83352e-007 4.96376e-007 3.80207e-007 8.90545 -30.7937 18.4512 167.563 81.892 -165.103 -19.7241 44.607 25.3256 1.67984e-007 -1.63241e-007 5.95879e-007 
1.62999 27.3556 3.05545 0 31.1256 -0 0.245251 -0.383873 -0.249681 0.488843 -0.768803 -0.497734 0.488843 -0.768805 -0.497734 -9.23475e-005 -1.42089 9.37451e-005 2.82742e-007 -1.07787 -2.17263e-008 -19.3538 16.0794 -32.6302 -16.8159 -5.47959 -6.04131 -23.3708 19.1393 -60.4809 20.6388 -25.5656 -1.1 1.01083e-006 1.75166e-006 -1.28476e-006 -3.89164e-007 2.41533e-006 -1.8851e-006 -1.01083e-006 -1.75166e-006 1.28476e-006 1.01083e-006 1.75166e-006 -1.28476e-006 -0.0146169 -9.43084e-005 5.41999e-006 -1.01233e-006 -1.75184e-006 1.28454e-006 1.01083e-006 1.75166e-006 -1.28476e-006 -0.0187281 -0.00117556 5.7489e-005 3.18055e-015 6.36111e-015 -1.59028e-014 1.01083e-006 1.75166e-006 -1.28476e-006 -0.0123041 -0.00325742 0.00067732 2.11868e-030 -1.27222e-014 9.54166e-015 1.01083e-006 1.75166e-006 -1.28476e-006 -3.89164e-007 2.41533e-006 -1.8851e-006 -1.01083e-006 -1.75166e-006 1.28476e-006 7.09763 -8.11367 13.9595 9.32126 20.4659 29.9082 -0.785174 -0.336953 21.1303 2.85242 -11.0645 4.94107 -2.97105e-006 6.99945e-008 -6.3768e-007 -2.10841e-006 4.53735e-007 -3.24084e-006 -2.97105e-006 6.99944e-008 -6.3768e-007 -2.97105e-006 6.99945e-008 -6.3768e-007 0.0150114 -8.90272e-005 1.19534e-006 -2.97197e-006 6.99164e-008 -6.37687e-007 -2.97105e-006 6.99945e-008 -6.3768e-007 0.0189579 -0.00119153 -6.72385e-005 -5.30243e-007 2.48868e-007 6.72637e-007 -2.97105e-006 6.99945e-008 -6.3768e-007 0.01227 -0.00324831 -0.00067559 -2.97182e-006 7.01073e-008 -6.37562e-007 -2.97105e-006 6.99945e-008 -6.3768e-007 -2.10841e-006 4.53735e-007 -3.24084e-006 -2.97105e-006 6.99944e-008 -6.3768e-007 -8.66902 -28.7279 -18.044 -166.428 82.637 164.025 19.7828 44.7878 -25.3745 5.588e-008 5.44141e-008 1.9866e-007 8.63441 -28.7204 17.9995 166.752 82.6656 -164.337 -19.6953 44.6081 25.2877 -1.9678e-007 1.90518e-007 -6.94952e-007 
1.62998 27.3366 3.64859 0 29.6848 -0 0.240548 0.214457 -0.25421 0.48205 0.42785 -0.509323 0.48205 0.427845 -0.509323 0.000208564 -1.89348 -0.000231922 -1.6891e-007 -1.33123 1.00218e-007 -18.7034 15.6619 -32.5858 -16.8159 -5.4796 -6.04131 -23.602 19.5607 -61.457 21.8401 -25.2027 -1.14829 -3.64485e-007 4.72446e-007 6.02899e-007 -3.87564e-007 2.4116e-006 -1.88978e-006 -7.2897e-007 9.44891e-007 1.2058e-006 -3.64485e-007 4.72446e-007 6.02899e-007 -0.0146277 -9.05618e-005 -7.37158e-006 -7.28994e-007 9.44737e-007 1.20592e-006 -3.64485e-007 4.72446e-007 6.02899e-007 -0.0187907 -0.00118029 5.81239e-005 -7.28989e-007 9.44692e-007 1.20596e-006 -3.64485e-007 4.72446e-007 6.02899e-007 -0.0122418 -0.00324072 0.000673949 -7.28951e-007 9.44761e-007 1.20592e-006 -3.64485e-007 4.72446e-007 6.02899e-007 -3.87564e-007 2.4116e-006 -1.88978e-006 -7.2897e-007 9.44891e-007 1.2058e-006 6.1945 -8.62985 12.7565 9.54034 20.599 30.8033 -0.699044 -0.303412 21.9808 1.7184 -11.7338 4.68414 -7.00747e-006 6.35872e-007 6.98633e-008 -2.67581e-006 1.65584e-006 -5.65368e-007 -2.96657e-006 6.98632e-008 -6.35872e-007 -7.00747e-006 6.35872e-007 6.98633e-008 0.0150027 -9.18211e-005 -7.82228e-007 -2.96748e-006 6.97856e-008 -6.35879e-007 -7.00747e-006 6.35872e-007 6.98633e-008 0.0189575 -0.00118764 -5.86841e-005 -2.96773e-006 6.98292e-008 -6.35849e-007 -7.00747e-006 6.35872e-007 6.98633e-008 0.0121856 -0.00322626 -0.000676014 -5.36248e-007 2.47902e-007 6.70742e-007 -7.00747e-006 6.35872e-007 6.98633e-008 -2.67581e-006 1.65584e-006 -5.65368e-007 -2.96657e-006 6.98632e-008 -6.35872e-007 -8.41756 -26.6447 -17.6098 -165.4 83.4065 163.041 19.7541 44.7886 -25.3367 7.18744e-008 -6.38683e-007 -7.8182e-007 8.38282 -26.6372 17.5649 165.757 83.4364 -163.386 -19.6668 44.609 25.25 2.86546e-006 3.45627e-007 -1.99476e-006 
